<?xml version="1.0" encoding="UTF-8" standalone="no"?>
<!-- Created with Inkscape (http://www.inkscape.org/) -->

<svg
   xmlns:dc="http://purl.org/dc/elements/1.1/"
   xmlns:cc="http://creativecommons.org/ns#"
   xmlns:rdf="http://www.w3.org/1999/02/22-rdf-syntax-ns#"
   xmlns:svg="http://www.w3.org/2000/svg"
   xmlns="http://www.w3.org/2000/svg"
   xmlns:sodipodi="http://sodipodi.sourceforge.net/DTD/sodipodi-0.dtd"
   xmlns:inkscape="http://www.inkscape.org/namespaces/inkscape"
   width="234.95mm"
   height="52.916668mm"
   viewBox="0 0 234.95 52.916668"
   version="1.1"
   id="svg6070"
   inkscape:version="0.92.3 (2405546, 2018-03-11)"
   sodipodi:docname="banner.svg">
  <defs
     id="defs6064">
    <clipPath
       clipPathUnits="userSpaceOnUse"
       id="clipPath724">
      <path
         d="m 807.337,294.277 h 77.892 v -113.96 h -77.892 z"
         id="path722"
         inkscape:connector-curvature="0" />
    </clipPath>
    <clipPath
       clipPathUnits="userSpaceOnUse"
       id="clipPath784">
      <path
         d="m 790.479,257.246 h 13.33 v -42.49 h -13.33 z"
         id="path782"
         inkscape:connector-curvature="0" />
    </clipPath>
  </defs>
  <sodipodi:namedview
     id="base"
     pagecolor="#ffffff"
     bordercolor="#666666"
     borderopacity="1.0"
     inkscape:pageopacity="0.0"
     inkscape:pageshadow="2"
     inkscape:zoom="0.98994949"
     inkscape:cx="562.15265"
     inkscape:cy="38.500691"
     inkscape:document-units="mm"
     inkscape:current-layer="layer1"
     showgrid="false"
     inkscape:snap-bbox="true"
     inkscape:object-nodes="false"
     inkscape:snap-smooth-nodes="true"
     inkscape:snap-midpoints="true"
     inkscape:bbox-paths="true"
     inkscape:bbox-nodes="true"
     inkscape:snap-bbox-edge-midpoints="true"
     inkscape:snap-bbox-midpoints="true"
     inkscape:window-width="1920"
     inkscape:window-height="1018"
     inkscape:window-x="-8"
     inkscape:window-y="-8"
     inkscape:window-maximized="1"
     fit-margin-top="0"
     fit-margin-left="0"
     fit-margin-right="0"
     fit-margin-bottom="0" />
  <metadata
     id="metadata6067">
    <rdf:RDF>
      <cc:Work
         rdf:about="">
        <dc:format>image/svg+xml</dc:format>
        <dc:type
           rdf:resource="http://purl.org/dc/dcmitype/StillImage" />
        <dc:title></dc:title>
      </cc:Work>
    </rdf:RDF>
  </metadata>
  <g
     inkscape:label="Ebene 1"
     inkscape:groupmode="layer"
     id="layer1"
     transform="translate(0,27.631325)">
    <rect
       style="fill:#171717;fill-opacity:1;stroke-width:0.26458332"
       id="rect6184"
       width="234.95"
       height="52.916668"
       x="0"
       y="-27.631325"
       rx="5.2916665"
       ry="5.2916665" />
    <rect
       style="fill:#e8e8e9;fill-opacity:1;stroke-width:0.26458332"
       id="rect7427"
       width="158.75"
       height="42.333332"
       x="68.262497"
       y="-22.339657"
       rx="5.2916665"
       ry="5.2916665" />
    <g
       id="g7107"
       transform="translate(35.999358,-226.50916)">
      <path
         inkscape:connector-curvature="0"
         id="path818-7"
         style="fill:#818385;fill-opacity:1;fill-rule:nonzero;stroke:none;stroke-width:0.35277775"
         d="m 41.115647,238.67908 -1.074209,-3.15454 c -0.243769,-0.71508 -0.405694,-1.3656 -0.568325,-2.00025 h -0.03316 c -0.161925,0.65017 -0.339725,1.31656 -0.55245,1.98296 l -1.072797,3.17183 z m -3.5941,1.1056 -1.138061,3.44735 h -1.463323 l 3.723217,-10.95975 h 1.708856 l 3.738738,10.95975 h -1.512005 l -1.170517,-3.44735 z" />
      <path
         inkscape:connector-curvature="0"
         id="path822-7"
         style="fill:#818385;fill-opacity:1;fill-rule:nonzero;stroke:none;stroke-width:0.35277775"
         d="m 45.60118,237.49156 c 0,-0.8128 -0.01587,-1.47885 -0.06491,-2.12937 h 1.267884 l 0.0822,1.30069 h 0.0314 c 0.390878,-0.74789 1.301045,-1.48026 2.601736,-1.48026 1.090083,0 2.780947,0.65053 2.780947,3.34963 v 4.69971 h -1.430866 v -4.53743 c 0,-1.26788 -0.471311,-2.32446 -1.821392,-2.32446 -0.942975,0 -1.675694,0.6664 -1.919464,1.46333 -0.06491,0.17956 -0.0956,0.42192 -0.0956,0.66569 v 4.73287 H 45.60119 Z" />
      <path
         inkscape:connector-curvature="0"
         id="path826-8"
         style="fill:#818385;fill-opacity:1;fill-rule:nonzero;stroke:none;stroke-width:0.35277775"
         d="m 59.989258,238.56537 c 0,-0.17956 -0.01728,-0.42333 -0.06597,-0.60148 -0.21096,-0.91193 -0.990246,-1.65982 -2.064454,-1.65982 -1.480608,0 -2.357967,1.30069 -2.357967,3.04095 0,1.5942 0.779286,2.91041 2.324806,2.91041 0.960614,0 1.83762,-0.63288 2.097615,-1.70709 0.04868,-0.19544 0.06597,-0.38876 0.06597,-0.61736 z m 1.430512,-6.87916 v 9.51266 c 0,0.6992 0.01728,1.49613 0.06385,2.03341 h -1.2827 l -0.06491,-1.36596 h -0.03316 c -0.43956,0.87736 -1.398763,1.54517 -2.68358,1.54517 -1.902531,0 -3.365853,-1.61114 -3.365853,-4.00156 -0.01517,-2.61762 1.609372,-4.22734 3.527778,-4.22734 1.205089,0 2.017537,0.56832 2.374899,1.20332 h 0.03316 v -4.6997 z" />
      <path
         inkscape:connector-curvature="0"
         id="path830-3"
         style="fill:#818385;fill-opacity:1;fill-rule:nonzero;stroke:none;stroke-width:0.35277775"
         d="m 63.791283,237.81745 c 0,-0.9278 -0.01588,-1.72473 -0.06491,-2.45533 h 1.252008 l 0.04904,1.54516 h 0.06491 c 0.357362,-1.05833 1.218846,-1.72472 2.177696,-1.72472 0.164041,0 0.276931,0.0159 0.408165,0.049 v 1.34937 c -0.14605,-0.0332 -0.292807,-0.0487 -0.487892,-0.0487 -1.010357,0 -1.724732,0.76376 -1.918407,1.83797 -0.03281,0.19509 -0.06597,0.42228 -0.06597,0.66605 v 4.19594 h -1.41464 z" />
      <path
         inkscape:connector-curvature="0"
         id="path834-2"
         style="fill:#818385;fill-opacity:1;fill-rule:nonzero;stroke:none;stroke-width:0.35277775"
         d="m 69.821561,239.31366 c 0,1.72296 0.992364,3.02366 2.390775,3.02366 1.367014,0 2.390423,-1.28482 2.390423,-3.05683 0,-1.33385 -0.665692,-3.02366 -2.357261,-3.02366 -1.691571,0 -2.423937,1.56069 -2.423937,3.05683 m 6.244521,-0.0819 c 0,2.91042 -2.016125,4.17971 -3.918305,4.17971 -2.131129,0 -3.7719,-1.56245 -3.7719,-4.04883 0,-2.6349 1.722615,-4.18007 3.902782,-4.18007 2.259893,0 3.787423,1.64254 3.787423,4.04919" />
      <path
         inkscape:connector-curvature="0"
         id="path838-4"
         style="fill:#231f20;fill-opacity:1;fill-rule:nonzero;stroke:none;stroke-width:0.35277775"
         d="m 89.704575,242.74361 c -0.633235,0.22825 -1.885244,0.60184 -3.365148,0.60184 -1.658406,0 -3.024011,-0.42192 -4.098219,-1.4471 -0.941917,-0.91087 -1.527527,-2.37384 -1.527527,-4.08093 0.01588,-3.2692 2.259894,-5.65856 5.934427,-5.65856 1.269294,0 2.261307,0.27552 2.73191,0.50412 l -0.341841,1.15429 c -0.585611,-0.26141 -1.316567,-0.47272 -2.421819,-0.47272 -2.666293,0 -4.4069,1.65876 -4.4069,4.4069 0,2.78095 1.674283,4.42383 4.226983,4.42383 0.928159,0 1.56069,-0.13052 1.887361,-0.2928 v -3.26814 h -2.22885 v -1.13877 h 3.609623 z" />
      <path
         inkscape:connector-curvature="0"
         id="path842-7"
         style="fill:#231f20;fill-opacity:1;fill-rule:nonzero;stroke:none;stroke-width:0.35277775"
         d="m 98.401395,241.08548 c 0,0.8128 0.01728,1.52929 0.06597,2.14666 h -1.268944 l -0.08079,-1.28553 h -0.03281 c -0.373592,0.635 -1.203325,1.46509 -2.601738,1.46509 -1.236133,0 -2.715683,-0.68368 -2.715683,-3.4477 v -4.60199 h 1.430514 v 4.35787 c 0,1.49613 0.454732,2.50437 1.755775,2.50437 0.960967,0 1.627365,-0.6664 1.887009,-1.30105 0.0822,-0.21237 0.130175,-0.47272 0.130175,-0.73236 v -4.82883 h 1.430515 z" />
      <path
         inkscape:connector-curvature="0"
         id="path846-8"
         style="fill:#231f20;fill-opacity:1;fill-rule:nonzero;stroke:none;stroke-width:0.35277775"
         d="m 104.91953,239.21583 c -1.56069,-0.0332 -3.3334,0.24412 -3.3334,1.77165 0,0.92781 0.61877,1.36596 1.34902,1.36596 1.02518,0 1.6757,-0.65053 1.90324,-1.31692 0.048,-0.14641 0.0811,-0.30868 0.0811,-0.45509 z m 0.21166,4.01638 -0.11394,-0.99237 h -0.0487 c -0.43886,0.61877 -1.28517,1.17193 -2.4063,1.17193 -1.5935,0 -2.40665,-1.12324 -2.40665,-2.26201 0,-1.90218 1.69157,-2.94147 4.73075,-2.9263 v -0.16157 c 0,-0.65052 -0.1778,-1.8228 -1.78717,-1.8228 -0.73237,0 -1.49578,0.2286 -2.04929,0.58632 l -0.32597,-0.94333 c 0.65053,-0.42192 1.59385,-0.69956 2.58622,-0.69956 2.40665,0 2.99226,1.64289 2.99226,3.2191 v 2.94358 c 0,0.68368 0.0318,1.34973 0.12947,1.88701 z" />
      <path
         inkscape:connector-curvature="0"
         id="path850-6"
         style="fill:#231f20;fill-opacity:1;fill-rule:nonzero;stroke:none;stroke-width:0.35277775"
         d="m 108.60853,237.81745 c 0,-0.9278 -0.0159,-1.72473 -0.0649,-2.45533 h 1.252 l 0.049,1.54516 h 0.0649 c 0.35666,-1.05833 1.21885,-1.72472 2.17911,-1.72472 0.16193,0 0.27552,0.0159 0.40676,0.049 v 1.34937 c -0.14676,-0.0332 -0.29281,-0.0487 -0.4886,-0.0487 -1.00824,0 -1.72262,0.76376 -1.91841,1.83797 -0.0328,0.19509 -0.066,0.42228 -0.066,0.66605 v 4.19594 h -1.41393 z" />
      <path
         inkscape:connector-curvature="0"
         id="path854-2"
         style="fill:#231f20;fill-opacity:1;fill-rule:nonzero;stroke:none;stroke-width:0.35277775"
         d="m 119.12846,238.56537 c 0,-0.17956 -0.0173,-0.42333 -0.066,-0.60148 -0.21096,-0.91193 -0.99236,-1.65982 -2.06445,-1.65982 -1.48061,0 -2.35797,1.30069 -2.35797,3.04095 0,1.5942 0.77929,2.91041 2.32481,2.91041 0.9592,0 1.83762,-0.63288 2.09761,-1.70709 0.0487,-0.19544 0.066,-0.38876 0.066,-0.61736 z m 1.43052,-6.87916 v 9.51266 c 0,0.6992 0.0152,1.49613 0.0638,2.03341 h -1.28341 l -0.0663,-1.36596 h -0.031 c -0.43956,0.87736 -1.39876,1.54517 -2.68358,1.54517 -1.90253,0 -3.36585,-1.61114 -3.36585,-4.00156 -0.0173,-2.61762 1.60937,-4.22734 3.52778,-4.22734 1.20368,0 2.01753,0.56832 2.3749,1.20332 h 0.0332 v -4.6997 z" />
    </g>
    <g
       id="g7208"
       transform="matrix(0.46875001,0,0,0.46875001,-7.3941602,-87.459143)">
      <path
         inkscape:connector-curvature="0"
         id="path700-3"
         style="fill:#818385;fill-opacity:1;fill-rule:nonzero;stroke:none;stroke-width:0.35277775"
         d="m 77.863095,224.71747 c -22.442663,0 -40.640351,-18.19804 -40.640351,-40.64035 0,-22.44231 18.197688,-40.63859 40.640351,-40.63859 22.441955,0 40.640355,18.19628 40.640355,40.63859 0,22.44231 -18.1984,40.64035 -40.640355,40.64035 m 0,-85.7959 c -24.935744,0 -45.155554,20.22157 -45.155554,45.15555 0,24.93539 20.21981,45.15555 45.155554,45.15555 24.935745,0 45.155555,-20.22016 45.155555,-45.15555 0,-24.93398 -20.21981,-45.15555 -45.155555,-45.15555" />
      <g
         id="g7167">
        <path
           d="m 55.398348,168.55176 c 0,0 -3.431469,28.02396 22.452542,45.3711 v 1.58927 C 50.45064,197.1518 54.089895,167.48567 54.089895,167.48567 66.624441,157.09142 77.85089,158.16528 77.85089,158.16528 v 1.58115 c -0.352777,-0.036 -10.810875,-0.84879 -22.452542,8.80533"
           style="fill:#58585a;fill-opacity:1;fill-rule:nonzero;stroke:none;stroke-width:0.35277775"
           id="path704-0"
           inkscape:connector-curvature="0" />
        <path
           d="m 77.850712,159.74643 v 54.17643 c -25.883657,-17.34749 -22.45254,-45.3711 -22.45254,-45.3711 11.641665,-9.65412 22.099763,-8.84167 22.45254,-8.80533"
           style="fill:#a8a9ad;fill-opacity:1;fill-rule:nonzero;stroke:none;stroke-width:0.35277775"
           id="path708-2"
           inkscape:connector-curvature="0" />
        <path
           d="m 77.850712,215.51219 v -1.58926 c 0,0.01 0.0088,0.01 0.0088,0.01 25.891438,-17.34888 22.469848,-45.3806 22.469848,-45.3806 C 88.471087,158.72641 77.859533,159.747 77.859533,159.747 h -0.0088 v -1.58151 c 0,0 11.235267,-1.07385 23.787097,9.32039 0,0 3.62197,29.6665 -23.787097,48.02681"
           style="fill:#a8a9ad;fill-opacity:1;fill-rule:nonzero;stroke:none;stroke-width:0.35277775"
           id="path712-6"
           inkscape:connector-curvature="0" />
        <path
           d="m 77.859674,213.9326 v -54.18631 c 0,0 10.611554,-1.02024 22.469476,8.80533 0,0 3.42194,28.03172 -22.469476,45.38098"
           style="fill:#e8e8e9;fill-opacity:1;fill-rule:nonzero;stroke:none;stroke-width:0.35277775"
           id="path716-1"
           inkscape:connector-curvature="0" />
      </g>
      <g
         id="g7161">
        <path
           inkscape:connector-curvature="0"
           id="path726-0"
           style="fill:#000000;fill-opacity:1;fill-rule:nonzero;stroke:none;stroke-width:0.35277778"
           d="m 93.809429,177.33364 v 8.2871 h -4.701822 v -8.2871 c 0,-1.05304 1.053042,-1.91488 2.350911,-1.91488 1.297869,0 2.350911,0.86184 2.350911,1.91488" />
        <path
           d="M 93.809253,187.21657 H 89.10743 v -1.59562 h 4.701823 z"
           style="fill:#58595b;fill-opacity:1;fill-rule:nonzero;stroke:none;stroke-width:0.35277778"
           id="path730-7"
           inkscape:connector-curvature="0" />
        <path
           inkscape:connector-curvature="0"
           id="path732-6"
           style="fill:#000000;fill-opacity:1;fill-rule:nonzero;stroke:none;stroke-width:0.35277778"
           d="m 93.809429,188.49334 c 0,1.05304 -1.053042,1.91488 -2.350911,1.91488 -1.297869,0 -2.350911,-0.86184 -2.350911,-1.91488 v -1.2767 h 4.701822 z" />
        <path
           inkscape:connector-curvature="0"
           id="path736-3"
           style="fill:#000000;fill-opacity:1;fill-rule:nonzero;stroke:none;stroke-width:0.35277778"
           d="m 85.171207,175.41869 h 2.702278 v 17.59585 c 0,1.19133 -0.957792,2.12796 -2.127603,2.12796 h -0.797983 v 5.5954 c 0,1.04281 -0.851253,1.9043 -1.904295,1.9043 -1.053394,0 -1.914877,-0.86149 -1.914877,-1.9043 v -5.5954 h -7.978775 v 5.5954 c 0,1.04281 -0.8509,1.9043 -1.904647,1.9043 -1.053042,0 -1.903942,-0.86149 -1.903942,-1.9043 v -5.5954 H 68.45836 c -1.1811,0 -2.127603,-0.93663 -2.127603,-2.12796 v -17.59585 h 2.435931 z" />
        <path
           transform="matrix(0.26458333,0,0,0.26458333,32.707541,138.92157)"
           inkscape:connector-curvature="0"
           id="path740-5"
           d="m 223.00195,97.763672 c -0.20703,0.01107 -0.46809,0.06621 -0.79492,0.171875 -1.24533,0.402671 -2.5317,1.809099 -3.45703,2.814453 -1.12534,1.28666 -2.09122,2.05122 -3.69922,2.97656 -2.292,1.36664 -4.74534,3.77881 -7.27734,4.38282 -2.132,0.4013 -3.98168,-0.40302 -6.15235,-0.64454 -3.09733,-0.24147 -5.94962,-0.32116 -8.76562,0.16016 l 0.006,0.006 c -1.39418,0.20243 -2.74953,0.56226 -4.10352,1.08008 -1.08533,0.36132 -2.0081,1.08594 -3.13476,1.44726 -1.08667,0.32281 -2.25326,0.44213 -3.41993,0.60352 -0.92398,0.24113 -1.72701,0.32013 -2.65234,0.36133 -1.688,0.0387 -2.49271,-0.36203 -3.85937,-0.80469 -2.21334,-0.72268 -5.02542,-0.84324 -7.35743,-1.16602 -2.09066,-0.32126 -4.30159,-0.32249 -6.43359,-0.20117 -3.9,0.16131 -8.40461,0.0815 -12.22461,0.9668 -2.01067,0.48272 -4.05972,0.80296 -6.15039,0.68164 -1.24667,-0.0799 -2.57255,-0.12039 -3.69922,0.32227 -0.04,0 -0.041,0.041 -0.041,0.041 -0.004,0.004 -0.007,0.009 -0.0117,0.0137 -0.50635,0.16296 -0.93832,0.43762 -1.33203,0.86914 -0.04,0.0401 -0.0831,0.12305 -0.12305,0.12305 -0.844,0.96533 -2.451,1.24594 -3.01367,2.16992 -0.39905,0.71749 -0.51854,1.67122 -0.28711,2.50977 -0.006,0.008 -0.0119,0.0154 -0.0176,0.0234 0.12133,0.56264 0.36202,1.08599 0.80469,1.36718 0.88399,0.64267 2.77537,0.8042 3.85937,1.40821 1.368,0.76267 2.53373,1.52814 3.90039,2.05078 5.18667,2.04933 10.97731,4.46152 16.80664,3.21484 2.01067,-0.48265 3.70011,-1.2851 5.91211,-1.00391 1.68933,0.24118 3.41621,0.44236 5.18555,0.48243 3.82,0.20107 7.72008,1.1268 11.58008,0.16015 4.02133,-0.964 7.76085,-2.69479 11.74219,-4.02148 2.5607,-0.87973 5.5978,-1.0813 8.47851,-0.96485 0.724,0.0401 1.44788,0.082 2.17188,0.16211 2.08933,0.24133 3.90058,0.84375 6.03125,0.84375 h 5.34765 c 1.36667,0 2.85498,-0.20145 4.18164,0 0.884,0.0799 2.33045,0.92601 3.17578,0.44336 1.36534,-0.68402 -0.12053,-2.97614 -0.64453,-4.02148 -1.00533,-2.01067 -2.41097,-2.41182 -4.54297,-2.81445 -2.132,-0.36118 -7.51887,0.68314 -9.04687,-0.60352 6.55333,-5.10667 7.3173,-4.38268 9.5293,-7.27734 1.24666,-1.64935 2.2117,-3.45911 3.0957,-5.14844 0.63349,-1.230834 1.88285,-3.263038 0.43359,-3.185548 z m -67.61718,14.687498 c 1.648,0 3.01562,1.32566 3.01562,3.01367 0,1.64931 -1.36762,2.97657 -3.01562,2.97657 -1.648,0 -3.01563,-1.32726 -3.01563,-2.97657 0,-1.68801 1.36763,-3.01367 3.01563,-3.01367 z m 28.14648,0 c 1.648,0 3.01563,1.32566 3.01563,3.01367 0,1.64931 -1.36763,2.97657 -3.01563,2.97657 -1.64933,0 -3.01562,-1.32726 -3.01563,-2.97657 0,-1.68801 1.3663,-3.01367 3.01563,-3.01367 z"
           style="fill:#8ec640;fill-opacity:1;fill-rule:nonzero;stroke:none;stroke-width:1.33333337" />
        <path
           d="M 85.171136,175.41862 H 68.766617 v -1.06398 h 16.404519 z"
           style="fill:#58595b;fill-opacity:1;fill-rule:nonzero;stroke:none;stroke-width:0.35277778"
           id="path744-2"
           inkscape:connector-curvature="0" />
        <path
           inkscape:connector-curvature="0"
           id="path746-7"
           style="fill:#000000;fill-opacity:1;fill-rule:nonzero;stroke:none;stroke-width:0.35277778"
           d="m 81.266874,168.67404 c 0.436033,0 0.797983,0.35101 0.797983,0.79798 0,0.43604 -0.36195,0.78705 -0.797983,0.78705 -0.436033,0 -0.797983,-0.35101 -0.797983,-0.78705 0,-0.44697 0.36195,-0.79798 0.797983,-0.79798" />
        <path
           inkscape:connector-curvature="0"
           id="path750-0"
           style="fill:#000000;fill-opacity:1;fill-rule:nonzero;stroke:none;stroke-width:0.35277778"
           d="m 74.617824,169.47195 c 0,0.43603 -0.361597,0.78705 -0.797983,0.78705 -0.436034,0 -0.797631,-0.35102 -0.797631,-0.78705 0,-0.44697 0.361597,-0.79798 0.797631,-0.79798 0.436386,0 0.797983,0.35101 0.797983,0.79798" />
        <path
           inkscape:connector-curvature="0"
           id="path754-7"
           style="fill:#000000;fill-opacity:1;fill-rule:nonzero;stroke:none;stroke-width:0.35277778"
           d="m 72.660331,166.20579 c 1.383242,-0.63817 2.936169,-1.01071 4.574822,-1.01071 1.840442,0 3.584928,0.46814 5.095522,1.26612 l 1.308453,-3.58493 c 0.09596,-0.26599 0.351014,-0.43638 0.627592,-0.43638 0.07444,0 0.149225,0.0106 0.223661,0.0427 0.351014,0.12771 0.531989,0.51047 0.404283,0.8509 l -1.404408,3.87244 c 0.09596,0.0533 0.170391,0.11713 0.255411,0.19121 -0.372533,0.0533 -0.734131,0.14923 -1.095728,0.28751 -0.287161,0.0956 -0.531636,0.28717 -0.829733,0.38277 -0.287514,0.0854 -0.595842,0.11712 -0.904522,0.15981 -0.244475,0.0638 -0.457553,0.085 -0.702028,0.0956 -0.446617,0.0106 -0.659342,-0.0956 -1.020939,-0.21273 -0.585611,-0.19155 -1.329972,-0.2233 -1.946981,-0.30868 -0.553155,-0.085 -1.138413,-0.085 -1.702152,-0.0529 -1.031875,0.0427 -2.223559,0.0212 -3.234267,0.25541 -0.531989,0.12735 -1.074208,0.21272 -1.627364,0.18062 -0.329847,-0.0212 -0.680861,-0.0317 -0.978958,0.0854 0.542572,-0.5214 1.138414,-1.01071 1.776589,-1.40441 l -1.287286,-3.53201 c -0.127353,-0.34043 0.05327,-0.72319 0.404283,-0.8509 0.07444,-0.0321 0.148872,-0.0427 0.223308,-0.0427 0.276578,0 0.531989,0.17039 0.627592,0.43638 z" />
        <path
           inkscape:connector-curvature="0"
           id="path762-8"
           style="fill:#000000;fill-opacity:1;fill-rule:nonzero;stroke:none;stroke-width:0.35277778"
           d="M 85.171207,174.35485 H 68.766688 66.596752 c 0.244475,-1.68099 0.883003,-3.22333 1.818922,-4.5533 0,0 0,-0.0106 0.01058,-0.0106 0.0321,0.14888 0.09596,0.28717 0.213078,0.3616 0.233892,0.17039 0.734131,0.21273 1.020939,0.37253 0.36195,0.20215 0.670631,0.40429 1.032228,0.54258 1.372305,0.54257 2.904066,1.18074 4.446764,0.8509 0.531636,-0.12771 0.978605,-0.34043 1.563863,-0.266 0.44697,0.0639 0.904523,0.11712 1.372306,0.12771 1.010708,0.0533 2.042583,0.2981 3.063875,0.0427 1.063978,-0.25541 2.053166,-0.71261 3.106561,-1.06397 0.680861,-0.2339 1.489428,-0.28716 2.255308,-0.25541 0.01058,0 0.01058,0.0109 0.01058,0.0109 0.691444,1.15958 1.15958,2.46803 1.361722,3.84034 z" />
        <path
           inkscape:connector-curvature="0"
           id="path726-1"
           style="fill:#000000;fill-opacity:1;fill-rule:nonzero;stroke:none;stroke-width:0.35277778"
           d="m 65.086087,177.41887 v 8.2871 h -4.701822 v -8.2871 c 0,-1.05304 1.053042,-1.91488 2.350911,-1.91488 1.297869,0 2.350911,0.86184 2.350911,1.91488" />
        <path
           d="m 65.085911,187.3018 h -4.701823 v -1.59562 h 4.701823 z"
           style="fill:#58595b;fill-opacity:1;fill-rule:nonzero;stroke:none;stroke-width:0.35277778"
           id="path730-5"
           inkscape:connector-curvature="0" />
        <path
           inkscape:connector-curvature="0"
           id="path732-8"
           style="fill:#000000;fill-opacity:1;fill-rule:nonzero;stroke:none;stroke-width:0.35277778"
           d="m 65.086087,188.57857 c 0,1.05304 -1.053042,1.91488 -2.350911,1.91488 -1.297869,0 -2.350911,-0.86184 -2.350911,-1.91488 v -1.2767 h 4.701822 z" />
      </g>
    </g>
    <g
       id="g7543"
       transform="matrix(6.1462921,0,0,6.1462921,-275.30877,357.48633)">
      <path
         style="fill:#8ec640;fill-opacity:1;fill-rule:nonzero;stroke:none;stroke-width:0.16536459"
         d="m 82.395348,-59.892966 c -0.02568,0.0014 -0.05805,0.0082 -0.09859,0.02132 -0.15445,0.04994 -0.31399,0.224371 -0.428752,0.349059 -0.139569,0.159576 -0.259361,0.254399 -0.45879,0.369163 -0.284262,0.169495 -0.588534,0.468661 -0.902561,0.543572 -0.264418,0.04977 -0.493822,-0.04998 -0.763036,-0.07994 -0.384141,-0.02995 -0.737892,-0.03983 -1.087142,0.01986 l 7.44e-4,7.44e-4 c -0.172911,0.02511 -0.341006,0.06973 -0.508933,0.133955 -0.134606,0.04481 -0.249051,0.134682 -0.388783,0.179494 -0.134773,0.04004 -0.279457,0.05483 -0.424152,0.07485 -0.114595,0.02991 -0.21419,0.0397 -0.328952,0.04481 -0.209352,0.0048 -0.309155,-0.0449 -0.478653,-0.0998 -0.274506,-0.08963 -0.623269,-0.104582 -0.912493,-0.144614 -0.259291,-0.03984 -0.533498,-0.04 -0.797916,-0.02495 -0.483692,0.02001 -1.042369,0.01011 -1.516139,0.119906 -0.24937,0.05987 -0.5035,0.09959 -0.762792,0.08454 -0.154616,-0.0099 -0.319057,-0.01493 -0.45879,0.03997 -0.005,0 -0.0051,0.0051 -0.0051,0.0051 -4.96e-4,4.97e-4 -8.68e-4,0.0011 -0.0015,0.0017 -0.0628,0.02021 -0.116374,0.05428 -0.165203,0.107793 -0.005,0.005 -0.01031,0.01526 -0.01526,0.01526 -0.104676,0.119724 -0.303982,0.154526 -0.373766,0.269121 -0.04949,0.08899 -0.06431,0.207271 -0.03561,0.311271 -7.44e-4,9.92e-4 -0.0015,0.0019 -0.0022,0.0029 0.01505,0.06978 0.0449,0.134688 0.0998,0.169562 0.109636,0.07971 0.344211,0.09974 0.478653,0.174651 0.169664,0.09459 0.314242,0.189525 0.48374,0.254345 0.643268,0.254165 1.361443,0.553333 2.084417,0.398716 0.24937,-0.05986 0.4589,-0.159383 0.73324,-0.124509 0.209517,0.02991 0.42369,0.05486 0.64313,0.05983 0.473769,0.02494 0.957471,0.139749 1.436201,0.01986 0.498739,-0.119558 0.962528,-0.334217 1.456307,-0.498758 0.317587,-0.109107 0.694258,-0.134106 1.051534,-0.119664 0.08979,0.005 0.179571,0.01017 0.269364,0.02011 0.259126,0.02993 0.483763,0.104645 0.748016,0.104645 h 0.663234 c 0.169499,0 0.354085,-0.02499 0.518622,0 0.109636,0.0099 0.28903,0.114846 0.393871,0.05499 0.169334,-0.08483 -0.01495,-0.369112 -0.07994,-0.498758 -0.124684,-0.24937 -0.299017,-0.299122 -0.563435,-0.349058 -0.264418,-0.0448 -0.932516,0.08472 -1.122024,-0.07485 0.812767,-0.633346 0.907517,-0.543555 1.181857,-0.90256 0.154615,-0.204558 0.274303,-0.429011 0.383939,-0.638528 0.07857,-0.152652 0.233518,-0.404693 0.05378,-0.395082 z m -8.386115,1.821594 c 0.20439,0 0.374007,0.164413 0.374007,0.373766 0,0.204553 -0.169617,0.369164 -0.374007,0.369164 -0.204391,0 -0.374009,-0.164611 -0.374009,-0.369164 0,-0.209353 0.169618,-0.373766 0.374009,-0.373766 z m 3.490823,0 c 0.204391,0 0.374009,0.164413 0.374009,0.373766 0,0.204553 -0.169618,0.369164 -0.374009,0.369164 -0.204556,0 -0.374008,-0.164611 -0.374009,-0.369164 0,-0.209353 0.169453,-0.373766 0.374009,-0.373766 z"
         id="path740-5-5"
         inkscape:connector-curvature="0" />
      <path
         inkscape:connector-curvature="0"
         id="path744-2-3"
         style="fill:#58595b;fill-opacity:1;fill-rule:nonzero;stroke:none;stroke-width:0.16536459"
         d="m 79.33019,-54.90996 h -7.689619 v -0.498741 h 7.689619 z" />
      <path
         d="m 77.500067,-58.071482 c 0.20439,0 0.374055,0.164536 0.374055,0.374053 0,0.204394 -0.169665,0.36893 -0.374055,0.36893 -0.20439,0 -0.374055,-0.164536 -0.374055,-0.36893 0,-0.209517 0.169665,-0.374053 0.374055,-0.374053"
         style="fill:#000000;fill-opacity:1;fill-rule:nonzero;stroke:none;stroke-width:0.16536459"
         id="path746-7-7"
         inkscape:connector-curvature="0" />
      <path
         d="m 74.383325,-57.697462 c 0,0.204389 -0.169499,0.36893 -0.374055,0.36893 -0.204391,0 -0.373889,-0.164541 -0.373889,-0.36893 0,-0.209517 0.169498,-0.374053 0.373889,-0.374053 0.204556,0 0.374055,0.164536 0.374055,0.374053"
         style="fill:#000000;fill-opacity:1;fill-rule:nonzero;stroke:none;stroke-width:0.16536459"
         id="path750-0-4"
         inkscape:connector-curvature="0" />
      <path
         d="m 73.46575,-59.228474 c 0.648395,-0.299142 1.376329,-0.473771 2.144448,-0.473771 0.862707,0 1.680435,0.219441 2.388526,0.593494 l 0.613337,-1.680436 c 0.04498,-0.124683 0.164538,-0.204553 0.294184,-0.204553 0.03489,0 0.06995,0.005 0.104841,0.02002 0.164538,0.05986 0.24937,0.239283 0.189508,0.398859 l -0.658317,1.815206 c 0.04498,0.02499 0.07987,0.0549 0.119724,0.08963 -0.174625,0.02498 -0.344124,0.06995 -0.513622,0.13477 -0.134607,0.04481 -0.249205,0.134611 -0.388938,0.179424 -0.134772,0.04003 -0.279301,0.0549 -0.423994,0.07491 -0.114598,0.02991 -0.214478,0.03984 -0.329076,0.04481 -0.209352,0.005 -0.309067,-0.04481 -0.478565,-0.09972 -0.274505,-0.08979 -0.623425,-0.104672 -0.912647,-0.144694 -0.259292,-0.03984 -0.533632,-0.03984 -0.797884,-0.0248 -0.483692,0.02002 -1.042294,0.0099 -1.516063,0.119724 -0.24937,0.05969 -0.503535,0.09971 -0.762827,0.08467 -0.154616,-0.0099 -0.319153,-0.01486 -0.458886,0.04003 0.25433,-0.244407 0.533631,-0.473771 0.832776,-0.658317 l -0.603416,-1.65563 c -0.0597,-0.159577 0.02497,-0.338995 0.189508,-0.39886 0.03489,-0.01505 0.06978,-0.02002 0.104676,-0.02002 0.129646,0 0.24937,0.07987 0.294183,0.204553 z"
         style="fill:#000000;fill-opacity:1;fill-rule:nonzero;stroke:none;stroke-width:0.16536459"
         id="path754-7-6"
         inkscape:connector-curvature="0" />
      <path
         d="m 79.330223,-55.408602 h -7.689618 -1.017158 c 0.114598,-0.787964 0.413908,-1.510936 0.85262,-2.13436 0,0 0,-0.005 0.005,-0.005 0.01505,0.06979 0.04498,0.13461 0.09988,0.1695 0.109636,0.07987 0.344123,0.09972 0.478565,0.174623 0.169664,0.09476 0.314358,0.189511 0.483857,0.254334 0.643268,0.25433 1.361281,0.553472 2.08442,0.39886 0.249205,-0.05986 0.458721,-0.159577 0.733061,-0.124688 0.209517,0.02995 0.423995,0.0549 0.643269,0.05986 0.473769,0.02499 0.95746,0.139735 1.436191,0.02002 0.49874,-0.119724 0.962422,-0.334036 1.4562,-0.498736 0.319154,-0.109641 0.69817,-0.134606 1.057176,-0.119723 0.005,0 0.005,0.0051 0.005,0.0051 0.324115,0.543553 0.543554,1.156889 0.638308,1.800159 z"
         style="fill:#000000;fill-opacity:1;fill-rule:nonzero;stroke:none;stroke-width:0.16536459"
         id="path762-8-6"
         inkscape:connector-curvature="0" />
    </g>
  </g>
</svg>
